<svg width="35" height="35" viewBox="0 0 35 35" fill="none" xmlns="http://www.w3.org/2000/svg">
<path fill-rule="evenodd" clip-rule="evenodd" d="M17.3919 0.939331C7.77452 0.939331 0 8.68909 0 18.2758C0 25.9395 4.98145 32.4263 11.8921 34.7225C12.756 34.8947 13.0727 34.3494 13.0727 33.8901C13.0727 33.4883 13.0439 32.1106 13.0439 30.6754C8.20644 31.7087 7.19863 28.6088 7.19863 28.6088C6.42118 26.5996 5.2694 26.083 5.2694 26.083C3.6857 25.021 5.38458 25.021 5.38458 25.021C7.14104 25.1358 8.06247 26.8006 8.06247 26.8006C9.61737 29.4412 12.1225 28.6949 13.1303 28.2357C13.2743 27.1163 13.735 26.3413 14.2245 25.9108C10.366 25.5089 6.306 24.0164 6.306 17.3573C6.306 15.4629 6.99707 13.913 8.09126 12.7075C7.9185 12.2769 7.31381 10.4974 8.26403 8.11503C8.26403 8.11503 9.73255 7.65579 13.0439 9.89461C14.4261 9.52147 15.9234 9.32055 17.3919 9.32055C18.8604 9.32055 20.3577 9.52147 21.7399 9.89461C25.0512 7.65579 26.5198 8.11503 26.5198 8.11503C27.47 10.4974 26.8653 12.2769 26.6925 12.7075C27.8155 13.913 28.4778 15.4629 28.4778 17.3573C28.4778 24.0164 24.4178 25.4802 20.5305 25.9108C21.164 26.4561 21.7111 27.4894 21.7111 29.1255C21.7111 31.4504 21.6823 33.3161 21.6823 33.8901C21.6823 34.3494 21.999 34.8947 22.8629 34.7225C29.7735 32.4263 34.755 25.9395 34.755 18.2758C34.7838 8.68909 26.9805 0.939331 17.3919 0.939331Z" fill="white"/>
</svg>
