<svg width="32" height="32" viewBox="0 0 32 32" fill="none" xmlns="http://www.w3.org/2000/svg">
<path d="M26.6179 27.1726H22.0277V19.9798C22.0277 18.2646 21.9928 16.0573 19.6357 16.0573C17.2424 16.0573 16.8769 17.9236 16.8769 19.8532V27.1726H12.2866V12.3815H16.696V14.3976H16.7555C17.3715 13.2352 18.8698 12.0082 21.1081 12.0082C25.759 12.0082 26.6192 15.0693 26.6192 19.0538L26.6179 27.1726ZM7.10224 10.3576C5.62468 10.3576 4.43772 9.16159 4.43772 7.69049C4.43772 6.22068 5.62597 5.02598 7.10224 5.02598C8.57463 5.02598 9.76804 6.22068 9.76804 7.69049C9.76804 9.16159 8.57334 10.3576 7.10224 10.3576ZM9.40382 27.1726H4.80065V12.3815H9.40382V27.1726ZM28.9143 0.757324H2.49648C1.23203 0.757324 0.209106 1.757 0.209106 2.99046V29.522C0.209106 30.7567 1.23203 31.7551 2.49648 31.7551H28.9105C30.1736 31.7551 31.2069 30.7567 31.2069 29.522V2.99046C31.2069 1.757 30.1736 0.757324 28.9105 0.757324H28.9143Z" fill="white"/>
</svg>
