<svg width="36" height="35" viewBox="0 0 36 35" fill="none" xmlns="http://www.w3.org/2000/svg">
<path d="M18.2515 0H18.2428C8.6613 0 0.869652 7.79382 0.869652 17.3775C0.863702 21.0377 2.02232 24.6048 4.1779 27.5629L2.01222 34.0187L8.69171 31.8834C11.5251 33.7632 14.8513 34.7623 18.2515 34.755C27.8331 34.755 35.6247 26.959 35.6247 17.3775C35.6247 7.79599 27.8331 0 18.2515 0ZM28.3631 24.5392C27.9438 25.7231 26.2799 26.7049 24.9527 26.9916C24.0448 27.185 22.8587 27.3392 18.8663 25.684C13.7594 23.5683 10.4707 18.3789 10.2144 18.0422C9.96896 17.7055 8.15084 15.2944 8.15084 12.8007C8.15084 10.307 9.41722 9.09279 9.92769 8.57146C10.3469 8.14354 11.0398 7.94804 11.7045 7.94804C11.9196 7.94804 12.1129 7.9589 12.2867 7.96759C12.7972 7.98931 13.0535 8.01972 13.3902 8.82561C13.8094 9.83568 14.8303 12.3293 14.952 12.5857C15.0758 12.842 15.1996 13.1895 15.0258 13.5262C14.8629 13.8738 14.7195 14.028 14.4632 14.3234C14.2069 14.6188 13.9636 14.8447 13.7073 15.1619C13.4727 15.4378 13.2077 15.7332 13.5031 16.2436C13.7985 16.7432 14.8195 18.4093 16.3226 19.7474C18.2624 21.4743 19.835 22.026 20.3976 22.2606C20.8169 22.4344 21.3165 22.3931 21.6228 22.0673C22.0116 21.648 22.4916 20.9529 22.9804 20.2687C23.3279 19.7778 23.7667 19.717 24.2272 19.8907C24.6964 20.0537 27.1792 21.2809 27.6897 21.5351C28.2002 21.7914 28.5368 21.913 28.6607 22.1281C28.7823 22.3431 28.7823 23.3532 28.3631 24.5392Z" fill="white"/>
</svg>
