<svg width="66" height="66" viewBox="0 0 66 66" fill="none" xmlns="http://www.w3.org/2000/svg">
<path fill-rule="evenodd" clip-rule="evenodd" d="M0 33V61C0 63.7614 2.23858 66 5 66H33H61C63.7614 66 66 63.7614 66 61V33V5C66 2.23858 63.7614 0 61 0H33H5C2.23858 0 0 2.23858 0 5V33ZM14.4863 33.1188C14.4748 34.6081 15.6789 35.8217 17.1683 35.8217H18.7606C21.1328 35.8217 23.0558 37.7447 23.0558 40.1169V48.0264V57.1931C23.0558 58.871 24.416 60.2312 26.0939 60.2312C27.7718 60.2312 29.132 58.871 29.132 57.1931V48.0264V40.1169C29.132 37.7447 31.0551 35.8217 33.4273 35.8217H35.072C36.5358 35.8217 37.7225 34.635 37.7225 33.1712C37.7225 32.3801 37.7134 31.6592 37.6984 31.1579C37.6842 30.6843 37.4101 30.4305 36.9364 30.4232C35.2967 30.3979 31.0148 30.3868 26.052 30.395L17.2103 30.4191C15.717 30.4231 14.5037 31.6256 14.4863 33.1188ZM57.2745 32.7279C56.1011 31.5127 54.823 30.7689 53.1468 30.3498C52.0049 30.067 49.3021 29.9831 48.1392 30.2031C44.5564 30.8841 42.0735 33.1784 41.3716 36.4679C41.1725 37.4108 41.2354 39.747 41.4868 40.6793C41.7906 41.8003 42.524 43.1412 43.2992 43.9793C44.6402 45.425 46.1068 46.3365 49.5116 47.8031C52.4868 49.0917 53.5345 49.7098 54.0478 50.4431C54.4459 51.0193 54.5402 51.3546 54.5402 52.1193C54.5402 52.9679 54.2887 53.5441 53.6811 54.0993C52.2564 55.3774 49.3649 55.5346 47.2592 54.4241C46.5259 54.0365 45.3106 52.8736 44.7554 52.025C44.5311 51.6946 44.0895 51.5937 43.744 51.7941L42.4611 52.5384C41.4135 53.146 40.303 53.785 40.0097 53.9527C39.7059 54.1308 39.4335 54.2984 39.4021 54.3403C39.3287 54.466 40.5126 56.2155 41.1202 56.886C42.6706 58.6041 45.1849 59.9136 47.8354 60.385C49.0506 60.605 51.7325 60.6365 52.864 60.4374C56.5202 59.8193 59.1183 57.9546 60.1659 55.2098C61.1192 52.685 60.8049 49.2908 59.4011 47.1641C58.144 45.2574 56.1221 43.9165 51.3973 41.8841C48.8306 40.7736 48.0135 40.2289 47.5735 39.3174C47.364 38.8984 47.2906 38.5946 47.2906 38.0812C47.2802 36.3317 48.5687 35.2841 50.5697 35.4203C51.9316 35.5146 52.8221 36.0489 53.6706 37.285C53.9535 37.7041 54.2049 37.9765 54.2678 37.9346C56.0068 36.8555 58.8773 34.9279 58.8564 34.8441C58.783 34.5612 57.8821 33.3774 57.2745 32.7279Z" fill="white"/>
</svg>
