<svg width="78" height="68" viewBox="0 0 78 68" fill="none" xmlns="http://www.w3.org/2000/svg">
<path d="M38.9786 40.7625C42.7472 40.7625 45.8022 37.7075 45.8022 33.939C45.8022 30.1705 42.7472 27.1155 38.9786 27.1155C35.2101 27.1155 32.1551 30.1705 32.1551 33.939C32.1551 37.7075 35.2101 40.7625 38.9786 40.7625Z" fill="white"/>
<path d="M38.9816 49.58C29.3989 49.58 21.0179 48.4469 14.7453 46.3046C6.12628 43.3584 0.77179 38.6207 0.77179 33.9382C0.77179 29.427 5.72774 25.0056 14.0291 22.1111C20.8357 19.7382 29.6968 18.431 38.981 18.431H38.9823C48.0931 18.431 56.8372 19.7144 63.605 22.0444C72.1124 24.973 77.1915 29.4189 77.1915 33.9382C77.1915 38.6282 71.6506 43.3774 62.7303 46.3318C56.4074 48.4258 47.9734 49.58 38.9816 49.58ZM38.9816 21.6955C30.1831 21.6955 21.4797 22.9708 15.1037 25.1933C7.45793 27.8594 4.03631 31.5061 4.03631 33.9382C4.03631 36.4695 7.71774 40.4529 15.8001 43.2149C21.7368 45.2436 29.7526 46.3155 38.9816 46.3155C47.634 46.3155 55.7028 45.2205 61.7034 43.2325C70.1014 40.4502 73.9256 36.4648 73.9256 33.9382C73.9256 31.5836 70.3632 27.824 62.5406 25.1315C56.1068 22.9157 47.7394 21.6955 38.9816 21.6955Z" fill="white"/>
<path d="M23.5076 67.9762C22.1291 67.9762 20.8899 67.6803 19.8344 67.0703C15.9265 64.8198 14.5724 58.3179 16.2121 49.6792C17.556 42.5999 20.8498 34.2713 25.4881 26.2263H25.4902C30.0408 18.335 35.5204 11.4013 40.9198 6.70178C47.7073 0.796402 54.0948 -1.38471 58.0102 0.873934C62.0739 3.21623 63.4205 10.3886 61.5237 19.5919C60.1818 26.11 56.9669 33.9918 52.4728 41.7859C47.6862 50.0879 42.5174 56.7809 37.5274 61.1445C32.4545 65.5788 27.4237 67.9762 23.5076 67.9762ZM28.3174 27.8572C23.9212 35.4799 20.6791 43.6555 19.4202 50.2872C17.9097 58.2431 19.3583 63.0284 21.4646 64.2424C23.6607 65.5108 28.9472 64.3111 35.3789 58.6866C40.1023 54.5576 45.0351 48.149 49.6449 40.1563C53.9697 32.6568 57.0526 25.1191 58.3258 18.9342C60.1111 10.269 58.5686 4.96411 56.38 3.70183C54.3397 2.52796 49.3048 3.73379 43.0628 9.16446C37.9287 13.6321 32.6918 20.2706 28.3174 27.8572Z" fill="white"/>
<path d="M54.4784 68.0045C50.7799 68.0045 46.0817 65.7683 41.1918 61.5598C35.7291 56.8596 30.1584 49.845 25.5057 41.8095C20.9443 33.9311 17.6736 25.7215 16.2971 18.6912C14.5689 9.86001 15.8727 3.23643 19.7833 0.973713C23.8408 -1.37606 30.7283 1.03968 37.7538 7.279C42.7342 11.7011 47.9575 18.4219 52.4618 26.2037C57.2641 34.4949 60.4824 42.3155 61.7698 48.8187C63.5401 57.7539 62.1207 64.7618 58.0686 67.1075C57.0294 67.7094 55.8195 68.0045 54.4784 68.0045ZM28.3309 40.1752C32.7394 47.789 38.2034 54.6819 43.3205 59.0856C49.4585 64.368 54.3287 65.5072 56.4337 64.2823C58.6243 63.0146 60.2266 57.8321 58.5672 49.4525C57.3484 43.2969 54.2607 35.8238 49.638 27.8394C45.303 20.3514 40.3124 13.9162 35.5863 9.71923C28.9723 3.84581 23.6042 2.53116 21.419 3.79888C19.3814 4.97751 17.9123 9.94502 19.5011 18.0642C20.8096 24.7483 23.9456 32.6001 28.3309 40.1752Z" fill="white"/>
</svg>
