<svg width="65" height="72" viewBox="0 0 65 72" fill="none" xmlns="http://www.w3.org/2000/svg">
<path d="M32.3859 71.9692C31.3789 71.9692 30.4402 71.7048 29.5698 71.2407L20.6511 66.0164C19.3101 65.2878 19.9806 65.0234 20.3829 64.8911C22.1944 64.2949 22.5284 64.1626 24.4058 63.1048C24.6082 62.9725 24.8764 63.0399 25.0763 63.1721L31.9153 67.2064C32.1835 67.3387 32.52 67.3387 32.7199 67.2064L59.4736 51.9325C59.7418 51.8003 59.8759 51.5358 59.8759 51.204V20.7285C59.8759 20.3966 59.7418 20.1322 59.4736 19.9999L32.7224 4.79338C32.4542 4.66114 32.1177 4.66114 31.9178 4.79338L5.16403 20.0024C4.89583 20.1347 4.76174 20.4665 4.76174 20.731V51.2115C4.76174 51.4759 4.89583 51.8078 5.16403 51.94L12.4736 56.1065C16.4308 58.09 18.9103 55.7747 18.9103 53.4619V23.3731C18.9103 22.9764 19.2468 22.5797 19.7149 22.5797H23.1357C23.538 22.5797 23.9403 22.9115 23.9403 23.3731V53.4569C23.9403 58.6813 21.0559 61.7226 16.0285 61.7226C14.4851 61.7226 13.2782 61.7226 9.85998 60.0685L2.81858 56.1015C1.07278 55.111 0 53.2598 0 51.2763V20.7958C0 18.8124 1.07278 16.9611 2.81605 15.9681L29.5698 0.694213C31.2473 -0.231404 33.527 -0.231404 35.2019 0.694213L61.9557 15.9681C63.699 16.9611 64.7718 18.8124 64.7718 20.7958V51.2763C64.7718 53.2598 63.699 55.111 61.9557 56.104L35.2019 71.3779C34.3316 71.7721 33.3246 71.9692 32.3859 71.9692ZM40.6342 51.0119C28.8993 51.0119 26.4856 45.7226 26.4856 41.2268C26.4856 40.8301 26.8221 40.4334 27.2902 40.4334H30.7767C31.179 40.4334 31.5155 40.6979 31.5155 41.0945C32.0519 44.5999 33.5953 46.3189 40.7025 46.3189C46.3346 46.3189 48.7483 45.0615 48.7483 42.0875C48.7483 40.3685 48.0779 39.1111 39.2932 38.2528C31.9836 37.5243 27.4243 35.9375 27.4243 30.1867C27.4243 24.8301 31.9836 21.6566 39.6272 21.6566C48.2094 21.6566 52.4348 24.5657 52.9712 30.9128C52.9712 31.1123 52.9028 31.3094 52.7687 31.509C52.6346 31.6413 52.4322 31.7735 52.2324 31.7735H48.7458C48.4093 31.7735 48.0753 31.509 48.007 31.1772C47.2024 27.5396 45.1226 26.3495 39.6246 26.3495C33.4561 26.3495 32.7173 28.4652 32.7173 30.052C32.7173 31.9706 33.5902 32.5644 41.9043 33.6222C50.1526 34.6801 54.0414 36.202 54.0414 41.8879C53.9756 47.7036 49.1481 51.0119 40.6342 51.0119Z" fill="white"/>
</svg>
