<svg width="66" height="64" viewBox="0 0 66 64" fill="none" xmlns="http://www.w3.org/2000/svg">
<path d="M64.1277 28.9285L35.7586 1.19701C34.1259 -0.399002 31.4737 -0.399002 29.841 1.19701L23.9518 6.95379L31.4238 14.2578C33.1634 13.6863 35.1526 14.0696 36.5358 15.4217C37.926 16.7808 38.3182 18.7461 37.7193 20.4537L44.9203 27.4928C46.6599 26.9074 48.6705 27.2838 50.0679 28.6498C52.0143 30.5524 52.0143 33.6329 50.0679 35.5356C48.1215 37.4383 44.9702 37.4383 43.0238 35.5356C41.5622 34.1069 41.1986 32.0021 41.9401 30.2388L35.2239 23.6736V40.9509C35.7016 41.1809 36.1436 41.4875 36.5429 41.8709C38.4893 43.7735 38.4893 46.854 36.5429 48.7567C34.5965 50.6594 31.4452 50.6594 29.4987 48.7567C27.5523 46.854 27.5523 43.7735 29.4987 41.8709C29.9764 41.4039 30.5325 41.0485 31.1314 40.8115V23.3739C30.5397 23.1369 29.9836 22.7815 29.4987 22.3145C28.0229 20.8788 27.6735 18.7601 28.4293 16.9898L21.0501 9.7834L1.60026 28.8031C-0.0324425 30.3991 -0.0324425 32.9918 1.60026 34.5878L29.9693 62.3193C31.602 63.9153 34.2542 63.9153 35.887 62.3193L64.1277 34.7132C65.7604 33.1172 65.7604 30.5246 64.1277 28.9285Z" fill="white"/>
</svg>
