<svg width="70" height="68" viewBox="0 0 70 68" fill="none" xmlns="http://www.w3.org/2000/svg">
<path fill-rule="evenodd" clip-rule="evenodd" d="M63.9181 52.5232C60.1553 52.4293 57.2362 52.8058 54.7895 53.8414C54.085 54.1251 52.9545 54.1251 52.8617 55.0184C53.2382 55.3927 53.2835 56.0055 53.6136 56.5243C54.1778 57.4661 55.1671 58.7348 56.0603 59.3939C57.0495 60.1479 58.0377 60.8999 59.0712 61.559C60.9062 62.6874 62.9764 63.3465 64.7639 64.476C65.7995 65.1351 66.8341 65.982 67.8697 66.6885C68.3864 67.065 68.7165 67.6777 69.3756 67.9119V67.7695C69.0466 67.3477 68.9517 66.736 68.6237 66.2635C68.1523 65.7942 67.682 65.3692 67.2105 64.8999C65.847 63.0649 64.1522 61.4641 62.3162 60.1479C60.8102 59.1123 57.5167 57.7013 56.905 55.9601L56.8122 55.8652C57.8457 55.7703 59.0701 55.3938 60.0583 55.1112C61.6592 54.6893 63.1166 54.7821 64.7628 54.3592C65.5169 54.1705 66.2688 53.9353 67.0229 53.7001V53.2772C66.176 52.4304 65.5643 51.3009 64.6711 50.5015C62.2719 48.4314 59.6354 46.4076 56.9061 44.7139C55.4476 43.7732 53.5651 43.1605 52.0138 42.3622C51.4475 42.0795 50.5079 41.9382 50.1788 41.4679C49.3299 40.4333 48.8606 39.0686 48.2489 37.8443C46.8853 35.2563 45.5671 32.3867 44.3912 29.6574C43.5443 27.8224 43.0255 25.9874 41.992 24.2937C37.1451 16.2946 31.8742 11.4477 23.7812 6.69569C22.0411 5.70753 19.9709 5.28359 17.7584 4.76683C16.5825 4.71938 15.4067 4.62552 14.2297 4.57806C13.4757 4.24903 12.7238 3.35473 12.0646 2.93078C9.3828 1.2371 2.46569 -2.4329 0.488326 2.41297C-0.782464 5.4713 2.37078 8.48218 3.45279 10.0356C4.25429 11.1176 5.2878 12.3409 5.85411 13.5643C6.18209 14.3637 6.27595 15.2116 6.60604 16.0584C7.35797 18.1286 8.06455 20.4339 9.0527 22.3638C9.56946 23.352 10.1337 24.3876 10.7928 25.2819C11.1693 25.7997 11.8284 26.0349 11.9687 26.8817C11.3095 27.8235 11.2642 29.2345 10.8877 30.4115C9.19297 35.7287 9.85209 42.3158 12.2513 46.2209C13.0053 47.3968 14.7929 49.9848 17.1931 48.9966C19.3108 48.1498 18.8394 45.4679 19.451 43.1151C19.5934 42.5509 19.4985 42.1744 19.7801 41.7979V41.8918C20.4392 43.209 21.0983 44.4798 21.71 45.797C23.1685 48.1023 25.7101 50.5026 27.8277 52.1024C28.9561 52.9493 29.8504 54.4088 31.2615 54.9256V54.7832H31.1687C30.886 54.3614 30.4621 54.1726 30.0856 53.8425C29.2387 52.9957 28.298 51.96 27.6389 51.0193C25.6637 48.385 23.9236 45.4669 22.3702 42.456C21.6161 40.9975 20.957 39.3977 20.3474 37.9392C20.0627 37.3739 20.0627 36.5271 19.5934 36.2455C18.8868 37.28 17.8533 38.1754 17.3334 39.4451C16.4391 41.4679 16.3463 43.962 16.0173 46.55C15.8274 46.5974 15.9224 46.55 15.8274 46.6438C14.3236 46.2684 13.8047 44.715 13.2405 43.3978C11.8295 40.0568 11.5932 34.6931 12.8166 30.8344C13.1456 29.8462 14.5588 26.7404 13.9946 25.7997C13.7098 24.9054 12.7712 24.3887 12.2524 23.6821C11.6407 22.7878 10.9837 21.6594 10.5597 20.6712C9.4313 18.0358 8.86709 15.1188 7.6427 12.4833C7.07639 11.26 6.08929 9.9892 5.28886 8.86078C4.39456 7.58999 3.4085 6.69569 2.70192 5.19078C2.46675 4.67298 2.13772 3.82613 2.51421 3.26192C2.60701 2.88543 2.79684 2.74412 3.17122 2.65026C3.78289 2.13245 5.52509 2.79157 6.13675 3.07315C7.87684 3.77867 9.33534 4.4378 10.7938 5.4249C11.453 5.89525 12.1596 6.78955 13.0064 7.02578H13.9956C15.5016 7.35481 17.1942 7.11964 18.6052 7.54253C21.0994 8.34297 23.3573 9.51885 25.3821 10.7896C31.5451 14.6948 36.6283 20.2473 40.0621 26.8817C40.6263 27.9637 40.8615 28.9519 41.3803 30.0814C42.3695 32.3878 43.5929 34.7395 44.5789 36.9985C45.5681 39.21 46.5088 41.4689 47.9199 43.3039C48.6265 44.2921 51.4486 44.8088 52.7193 45.3266C53.6611 45.7495 55.1186 46.1271 55.9675 46.6438C57.5663 47.632 59.1661 48.7614 60.6721 49.8435C61.424 50.4066 63.7778 51.5825 63.9181 52.5232Z" fill="white"/>
<path fill-rule="evenodd" clip-rule="evenodd" d="M15.9234 11.6343C15.1241 11.6343 14.5599 11.7281 13.9957 11.8695V11.9633H14.0885C14.4649 12.7163 15.1241 13.2341 15.5944 13.8922C15.9709 14.6452 16.301 15.3981 16.6775 16.1511L16.7703 16.0573C17.4294 15.5869 17.7595 14.8339 17.7595 13.7045C17.4769 13.3754 17.4305 13.0453 17.1953 12.7163C16.9127 12.2459 16.301 12.0108 15.9234 11.6343Z" fill="white"/>
</svg>
