<svg width="42" height="64" viewBox="0 0 42 64" fill="none" xmlns="http://www.w3.org/2000/svg">
<path fill-rule="evenodd" clip-rule="evenodd" d="M9.27821 23.0335C4.34864 23.0335 0.352726 27.029 0.352726 31.9583C0.352726 36.888 4.34881 40.8841 9.27821 40.8841H18.2036V32.1383C18.2029 32.0786 18.2026 32.0185 18.2026 31.9583C18.2026 31.8986 18.2029 31.8384 18.2036 31.7787V23.0335H9.27821ZM18.2036 17.851H9.27821C4.34881 17.851 0.352726 13.8549 0.352726 8.92548C0.352726 3.99609 4.34881 0 9.27821 0H18.2036V17.851ZM23.3862 0V17.8509L32.3095 17.8504C37.2388 17.8504 41.2362 13.8547 41.2362 8.92548C41.2362 3.99609 37.2401 0 32.3105 0H23.3862ZM32.3098 23.033C27.4285 23.0334 23.4625 26.9523 23.3862 31.8153V32.1014C23.4625 36.965 27.4289 40.8841 32.3105 40.8841C37.2401 40.8841 41.2362 36.888 41.2362 31.9583C41.2362 27.029 37.2391 23.033 32.3098 23.033ZM9.27821 46.0666C4.34895 46.0666 0.352173 50.0634 0.352173 54.993C0.352173 59.9227 4.34823 63.9187 9.27765 63.9187C14.2072 63.9187 18.2033 59.9227 18.2033 54.993L18.2036 46.0666H9.27821Z" fill="white"/>
</svg>
