<svg width="58" height="58" viewBox="0 0 58 58" fill="none" xmlns="http://www.w3.org/2000/svg">
<path d="M27.9125 30.2868C28.2521 30.6244 28.7115 30.8139 29.1903 30.8139C29.6692 30.8139 30.1285 30.6244 30.4681 30.2868L48.5931 12.1618C48.763 11.9934 48.8979 11.7929 48.9899 11.572C49.0819 11.3511 49.1293 11.1142 49.1293 10.875C49.1293 10.6357 49.0819 10.3988 48.9899 10.1779C48.8979 9.95706 48.763 9.75659 48.5931 9.5881C48.2535 9.25052 47.7942 9.06104 47.3153 9.06104C46.8365 9.06104 46.3771 9.25052 46.0375 9.5881L29.1813 26.4443L12.3431 9.5881C12.0035 9.25052 11.5442 9.06104 11.0653 9.06104C10.5865 9.06104 10.1271 9.25052 9.78751 9.5881C9.61762 9.75659 9.48278 9.95706 9.39077 10.1779C9.29875 10.3988 9.25137 10.6357 9.25137 10.875C9.25137 11.1142 9.29875 11.3511 9.39077 11.572C9.48278 11.7929 9.61762 11.9934 9.78751 12.1618L27.9125 30.2868Z" fill="white" fill-opacity="0.63"/>
<path d="M46.0375 27.7131L29.1813 44.5693L12.3431 27.7131C12.0035 27.3755 11.5442 27.186 11.0653 27.186C10.5865 27.186 10.1271 27.3755 9.78751 27.7131C9.61762 27.8816 9.48278 28.0821 9.39077 28.3029C9.29875 28.5238 9.25137 28.7607 9.25137 29C9.25137 29.2392 9.29875 29.4761 9.39077 29.697C9.48278 29.9179 9.61762 30.1183 9.78751 30.2868L27.9125 48.4118C28.2521 48.7494 28.7115 48.9389 29.1903 48.9389C29.6692 48.9389 30.1285 48.7494 30.4681 48.4118L48.5931 30.2868C48.763 30.1183 48.8979 29.9179 48.9899 29.697C49.0819 29.4761 49.1293 29.2392 49.1293 29C49.1293 28.7607 49.0819 28.5238 48.9899 28.3029C48.8979 28.0821 48.763 27.8816 48.5931 27.7131C48.2535 27.3755 47.7942 27.186 47.3153 27.186C46.8365 27.186 46.3771 27.3755 46.0375 27.7131Z" fill="white" fill-opacity="0.63"/>
</svg>
